<svg preserveAspectRatio="none" width="100%" height="100%" overflow="visible" style="display: block;" viewBox="0 0 1320 880" fill="none" xmlns="http://www.w3.org/2000/svg">
<g id="SVG" opacity="0.035" clip-path="url(#clip0_0_28)">
<path id="Vector" d="M1033.35 813.352C1239.55 607.156 1239.55 272.844 1033.35 66.6475C827.156 -139.549 492.844 -139.549 286.648 66.6475C80.4506 272.844 80.4506 607.156 286.648 813.352C492.844 1019.55 827.156 1019.55 1033.35 813.352Z" stroke="var(--stroke-0, #131411)" stroke-width="2.64"/>
<path id="Vector_2" d="M1002.24 782.24C1191.25 593.226 1191.25 286.774 1002.24 97.7602C813.226 -91.2536 506.774 -91.2536 317.76 97.7602C128.746 286.774 128.746 593.226 317.76 782.24C506.774 971.254 813.226 971.254 1002.24 782.24Z" stroke="var(--stroke-0, #131411)" stroke-width="2.64"/>
<path id="Vector_3" d="M971.127 751.127C1142.96 579.296 1142.96 300.704 971.127 128.873C799.296 -42.9578 520.704 -42.9578 348.873 128.873C177.042 300.704 177.042 579.296 348.873 751.127C520.704 922.958 799.296 922.958 971.127 751.127Z" stroke="var(--stroke-0, #131411)" stroke-width="2.64"/>
<path id="Vector_4" d="M940.014 720.014C1094.66 565.367 1094.66 314.633 940.014 159.986C785.367 5.33794 534.633 5.33794 379.986 159.986C225.338 314.633 225.338 565.367 379.986 720.014C534.633 874.662 785.367 874.662 940.014 720.014Z" stroke="var(--stroke-0, #131411)" stroke-width="2.64"/>
<path id="Vector_5" d="M908.902 688.903C1046.37 551.438 1046.37 328.563 908.902 191.099C771.437 53.6339 548.563 53.6339 411.098 191.099C273.633 328.563 273.633 551.438 411.098 688.903C548.563 826.367 771.437 826.367 908.902 688.903Z" stroke="var(--stroke-0, #131411)" stroke-width="2.64"/>
<path id="Vector_6" d="M877.789 657.79C998.071 537.508 998.071 342.493 877.789 222.211C757.508 101.93 562.492 101.93 442.211 222.211C321.929 342.493 321.929 537.508 442.211 657.79C562.492 778.072 757.508 778.072 877.789 657.79Z" stroke="var(--stroke-0, #131411)" stroke-width="2.64"/>
<path id="Vector_7" d="M846.677 626.677C949.775 523.578 949.775 356.423 846.677 253.324C743.578 150.225 576.422 150.225 473.323 253.324C370.225 356.423 370.225 523.578 473.323 626.677C576.422 729.776 743.578 729.776 846.677 626.677Z" stroke="var(--stroke-0, #131411)" stroke-width="2.64"/>
<path id="Vector_8" d="M815.564 595.564C901.479 509.649 901.479 370.352 815.564 284.437C729.648 198.521 590.352 198.521 504.436 284.437C418.521 370.352 418.521 509.649 504.436 595.564C590.352 681.48 729.648 681.48 815.564 595.564Z" stroke="var(--stroke-0, #131411)" stroke-width="2.64"/>
<path id="Vector_9" d="M784.451 564.451C853.183 495.719 853.183 384.282 784.451 315.549C715.719 246.817 604.281 246.817 535.549 315.549C466.817 384.282 466.817 495.719 535.549 564.451C604.281 633.184 715.719 633.184 784.451 564.451Z" stroke="var(--stroke-0, #131411)" stroke-width="2.64"/>
<path id="Vector_10" d="M753.338 533.338C804.888 481.789 804.888 398.211 753.338 346.662C701.789 295.113 618.211 295.113 566.662 346.662C515.112 398.211 515.112 481.789 566.662 533.338C618.211 584.888 701.789 584.888 753.338 533.338Z" stroke="var(--stroke-0, #131411)" stroke-width="2.64"/>
<path id="Vector_11" d="M722.226 502.226C756.592 467.859 756.592 412.141 722.226 377.775C687.859 343.408 632.141 343.408 597.774 377.775C563.408 412.141 563.408 467.859 597.774 502.226C632.141 536.592 687.859 536.592 722.226 502.226Z" stroke="var(--stroke-0, #131411)" stroke-width="2.64"/>
</g>
<defs>
<clipPath id="clip0_0_28">
<rect width="1320" height="880" fill="white"/>
</clipPath>
</defs>
</svg>
