<svg xmlns="http://www.w3.org/2000/svg" viewBox="0 0 60 25" fill="none">
  <path fill-rule="evenodd" clip-rule="evenodd" d="M60 12.8C60 8.55 57.95 5.07 53.9 5.07C49.83 5.07 47.38 8.55 47.38 12.77C47.38 17.73 50.18 20.5 54.18 20.5C56.15 20.5 57.65 20.03 58.78 19.37V16.12C57.65 16.72 56.35 17.08 54.7 17.08C53.08 17.08 51.65 16.48 51.48 14.52H59.97C59.97 14.3 60 13.33 60 12.8ZM51.43 11.55C51.43 9.67 52.53 8.9 53.88 8.9C55.2 8.9 56.23 9.67 56.23 11.55H51.43ZM40.98 5.07C39.33 5.07 38.28 5.82 37.7 6.35L37.48 5.3H34V24.17L37.88 23.35L37.9 19.4C38.5 19.85 39.38 20.5 40.95 20.5C44.15 20.5 47.05 17.97 47.05 12.62C47.03 7.7 44.1 5.07 40.98 5.07ZM40.13 17.02C39.08 17.02 38.45 16.62 38.03 16.12L37.9 9.35C38.35 8.8 39.01 8.42 40.13 8.42C41.88 8.42 43.1 10.35 43.1 12.7C43.1 15.1 41.9 17.02 40.13 17.02ZM28.55 4.15L32.45 3.32V0L28.55 0.82V4.15ZM28.55 5.3H32.45V20.25H28.55V5.3ZM24.18 6.5L23.93 5.3H20.55V20.25H24.43V9.57C25.38 8.35 27 8.6 27.43 8.75V5.3C26.98 5.13 25.13 4.77 24.18 6.5ZM16.45 1.67L12.65 2.47L12.63 16.27C12.63 18.62 14.4 20.5 16.75 20.5C18.05 20.5 19 20.27 19.58 19.97V16.65C19.03 16.87 16.43 17.6 16.43 15.25V8.7H19.58V5.3H16.43L16.45 1.67ZM4.7 9.35C4.7 8.62 5.3 8.33 6.28 8.33C7.7 8.33 9.48 8.75 10.9 9.52V5.82C9.35 5.2 7.83 4.97 6.28 4.97C2.7 4.97 0.35 6.85 0.35 9.57C0.35 13.85 6.18 13.15 6.18 15.02C6.18 15.87 5.43 16.17 4.38 16.17C2.83 16.17 0.85 15.55 0 14.92V18.67C1 19.17 2.73 20.5 4.38 20.5C8.05 20.5 10.53 18.67 10.53 15.92C10.5 11.27 4.7 12.12 4.7 9.35Z" fill="#635BFF"/>
</svg>
